<svg width="30" height="29" viewBox="0 0 30 29" fill="none" xmlns="http://www.w3.org/2000/svg">
<path d="M24.2181 18.7403H18.1526L24.9762 7.31093H5.03906V21.7428H8.37772V15.9378H13.5928V13.1353H8.40876V10.284H13.6416H19.2466L12.6668 21.7134H24.2181V18.7403Z" fill="#80ED99"/>
<path d="M14.9844 0C6.96673 0 0.484375 6.50672 0.484375 14.5C0.484375 22.5176 6.9911 29 14.9844 29C23.002 29 29.5087 22.4933 29.5087 14.5C29.5087 6.48235 23.002 0 14.9844 0ZM12.6693 21.7134L19.2734 10.284H13.6684H8.40455V13.1353H13.5953V15.9378H8.38018V21.7378H5.04152V7.31092H24.976L18.1524 18.7403H24.2205V21.7134H12.6693Z" fill="#001F3F"/>
</svg>
