<svg width="30" height="29" viewBox="0 0 30 29" fill="none" xmlns="http://www.w3.org/2000/svg">
<path d="M24.7181 18.7403H18.6526L25.4762 7.31091H5.53906V21.7428H8.87772V15.9378H14.0928V13.1353H8.90876V10.284H14.1416H19.7466L13.1668 21.7134H24.7181V18.7403Z" fill="#16384E"/>
<path d="M15.4844 0C7.46673 0 0.984375 6.50672 0.984375 14.5C0.984375 22.5176 7.4911 29 15.4844 29C23.502 29 30.0087 22.4933 30.0087 14.5C30.0087 6.48235 23.502 0 15.4844 0ZM13.1693 21.7134L19.7734 10.284H14.1684H8.90455V13.1353H14.0953V15.9378H8.88018V21.7378H5.54152V7.31092H25.476L18.6524 18.7403H24.7205V21.7134H13.1693Z" fill="#57CC99"/>
</svg>
