<svg width="80" height="28" viewBox="0 0 80 28" fill="none" xmlns="http://www.w3.org/2000/svg">
<rect width="28" height="28" rx="3.37013" fill="#80ED99"/>
<path d="M18.4652 15.4115H14.7553L18.9289 8.41479H6.73438V17.2495H8.77646V13.6959H11.9663V11.9803H8.79544V10.2348H11.9961H15.4244L11.3999 17.2315H18.4652V15.4115Z" fill="#80ED99"/>
<path d="M13.9889 3.94019C8.43108 3.94019 3.9375 8.45445 3.9375 14.0001C3.9375 19.5626 8.44798 24.0599 13.9889 24.0599C19.5468 24.0599 24.0573 19.5457 24.0573 14.0001C24.0573 8.43754 19.5468 3.94019 13.9889 3.94019ZM12.3841 19.0046L16.9621 11.0751H13.0767H9.42778V13.0532H13.026V14.9976H9.41089V19.0216H7.09652V9.01239H20.9151L16.185 16.9419H20.3914V19.0046H12.3841Z" fill="#001F3F"/>
<rect x="32.7314" y="4.6591" width="47.0425" height="18.6816" rx="3.14658" fill="white"/>
<rect x="32.7314" y="4.6591" width="47.0425" height="18.6816" rx="3.14658" stroke="#001F3F" stroke-width="0.447106"/>
<circle cx="43.7706" cy="8.54504" r="1.88" fill="#EE0000"/>
<path d="M38.1328 13.3649C38.1328 12.3708 38.9387 11.5649 39.9328 11.5649H47.6028C48.5969 11.5649 49.4028 12.3708 49.4028 13.3649V14.1949H38.1328V13.3649Z" fill="#EE0000"/>
<path d="M38.1328 19.535C38.1328 20.5291 38.9387 21.335 39.9328 21.335H47.6028C48.5969 21.335 49.4028 20.5291 49.4028 19.535V18.705H38.1328V19.535Z" fill="#EE0000"/>
<rect x="38.1328" y="13.665" width="2.63" height="3.9" fill="#EE0000"/>
<rect x="46.7734" y="15.3149" width="2.63" height="3.9" fill="#EE0000"/>
<rect x="39.9609" y="15.3149" width="9.44" height="2.25" fill="#EE0000"/>
<g clip-path="url(#clip0_6071_9197)">
<path d="M52.5547 6.92505H66.9065V21.335H52.5547V6.92505ZM61.2757 10.3381L55.6696 17.8621H58.2031L63.8304 10.3381H61.2757ZM54.5526 19.3392H64.9086V8.9212H54.5526V19.3392Z" fill="#0318A1"/>
</g>
<path d="M70.4509 15.6909C70.4509 15.5424 70.5033 15.418 70.6081 15.3176C70.7151 15.2171 70.8537 15.1669 71.024 15.1669C71.1965 15.1669 71.334 15.2171 71.4366 15.3176C71.5414 15.418 71.5938 15.5424 71.5938 15.6909C71.5938 15.8372 71.5414 15.9605 71.4366 16.0609C71.334 16.1613 71.1965 16.2116 71.024 16.2116C70.8537 16.2116 70.7151 16.1613 70.6081 16.0609C70.5033 15.9605 70.4509 15.8372 70.4509 15.6909ZM72.7773 15.6909C72.7773 15.5424 72.8297 15.418 72.9345 15.3176C73.0414 15.2171 73.1801 15.1669 73.3503 15.1669C73.5228 15.1669 73.6604 15.2171 73.763 15.3176C73.8677 15.418 73.9201 15.5424 73.9201 15.6909C73.9201 15.8372 73.8677 15.9605 73.763 16.0609C73.6604 16.1613 73.5228 16.2116 73.3503 16.2116C73.1801 16.2116 73.0414 16.1613 72.9345 16.0609C72.8297 15.9605 72.7773 15.8372 72.7773 15.6909ZM75.1036 15.6909C75.1036 15.5424 75.156 15.418 75.2608 15.3176C75.3678 15.2171 75.5064 15.1669 75.6767 15.1669C75.8492 15.1669 75.9867 15.2171 76.0893 15.3176C76.1941 15.418 76.2465 15.5424 76.2465 15.6909C76.2465 15.8372 76.1941 15.9605 76.0893 16.0609C75.9867 16.1613 75.8492 16.2116 75.6767 16.2116C75.5064 16.2116 75.3678 16.1613 75.2608 16.0609C75.156 15.9605 75.1036 15.8372 75.1036 15.6909Z" fill="#001F3F"/>
<rect x="29.3407" y="10.87" width="6.25948" height="6.25948" rx="3.12974" fill="white"/>
<rect x="29.3407" y="10.87" width="6.25948" height="6.25948" rx="3.12974" stroke="#001F3F" stroke-width="0.447106"/>
<path d="M32.4675 12.6025V13.9997M32.4675 13.9997V15.397M32.4675 13.9997H31.0703M32.4675 13.9997H33.8647" stroke="#001F3F" stroke-width="0.558882" stroke-linecap="round"/>
<defs>
<clipPath id="clip0_6071_9197">
<rect width="14.41" height="14.41" fill="white" transform="translate(52.5234 6.92505)"/>
</clipPath>
</defs>
</svg>
