<svg width="191" height="48" viewBox="0 0 350 89" fill="none" xmlns="http://www.w3.org/2000/svg">
  <path
    d="M133.37 14.5156H123.891V73.7622H137.591V49.9895H158.994V38.4364H137.591V26.7352H159.883V14.5156H137.591H133.37Z"
    fill="#2D3748" />
  <path d="M180.848 14.5156H166.555V73.7622H204.621V61.4685H180.848V14.5156Z" fill="#2D3748" />
  <path d="M225.808 14.5156H211.219V73.7622H225.808V14.5156Z" fill="#2D3748" />
  <path
    d="M236.909 14.5156V27.3277H260.46L232.836 73.7622H280.307V61.4685H255.35L283.344 14.5156H236.909Z"
    fill="#2D3748" />
  <path
    d="M307.416 40.8059C307.416 39.2507 307.046 37.8436 306.379 36.7327C305.713 35.6218 304.676 34.7331 303.343 34.1407C302.01 33.5482 300.381 33.252 298.381 33.252H290.383V56.3581H295.937V48.3598H298.381C300.381 48.3598 302.01 48.0636 303.343 47.4711C304.676 46.8787 305.713 45.99 306.379 44.8791C307.12 43.6942 307.416 42.3611 307.416 40.8059ZM301.121 43.0276C300.455 43.546 299.64 43.7682 298.455 43.7682H296.011V37.8436H298.455C299.566 37.8436 300.455 38.0657 301.121 38.5841C301.788 39.1026 302.084 39.8431 302.084 40.8059C302.01 41.8427 301.714 42.5092 301.121 43.0276Z"
    fill="#2D3748" />
  <path
    d="M306.227 56.359H312.522L314.669 51.9155H322.075L324.223 56.359H330.592L318.372 31.8457L306.227 56.359ZM320.964 47.6941H315.854L318.446 41.7695L320.964 47.6941Z"
    fill="#2D3748" />
  <path
    d="M343.627 33.252L339.109 41.9168L334.592 33.252H328.148L336.221 47.0268V56.4322H341.923V47.0268L349.996 33.326H343.627V33.252Z"
    fill="#2D3748" />
  <path
    d="M72.1353 56.952H53.7029L74.4392 22.2188H13.8516V66.0764H23.9975V48.4353H39.846V39.9186H24.0919V31.2539H39.9941H57.0275L37.0318 65.9871H72.1353V56.952Z"
    fill="#001F3F" />
  <path
    d="M44.0646 0C19.6995 0 0 19.7735 0 44.0646C0 68.4297 19.7735 88.1292 44.0646 88.1292C68.4297 88.1292 88.2033 68.3557 88.2033 44.0646C88.2033 19.6995 68.4297 0 44.0646 0ZM37.0291 65.9858L57.0988 31.2526H40.0655H24.0689V39.9173H39.8433V48.434H23.9948V66.0599H13.8489V22.2174H74.4285L53.6922 56.9507H72.1326V65.9858H37.0291Z"
    fill="#80ED99" />
</svg>