<svg width="1876" height="652" viewBox="0 0 1876 652" fill="none" xmlns="http://www.w3.org/2000/svg">
<rect width="1875.4" height="651.791" rx="72" fill="#001F3F"/>
<path d="M743.223 187.823H698.93V464.658H762.948V353.578H862.954V299.595H762.948V244.92H867.107V187.823H762.948H743.223Z" fill="#F4FEF5"/>
<path d="M965.037 187.823H898.251V464.658H1076.12V407.215H965.037V187.823Z" fill="#F4FEF5"/>
<path d="M1175.09 187.823H1106.92V464.658H1175.09V187.823Z" fill="#F4FEF5"/>
<path d="M1226.99 187.823V247.689H1337.03L1207.96 464.658H1429.77V407.215H1313.16L1443.96 187.823H1226.99Z" fill="#F4FEF5"/>
<path d="M1556.43 310.671C1556.43 303.405 1554.7 296.83 1551.58 291.639C1548.47 286.448 1543.62 282.296 1537.39 279.528C1531.16 276.759 1523.55 275.375 1514.21 275.375H1476.84V383.341H1502.79V345.968H1514.21C1523.55 345.968 1531.16 344.584 1537.39 341.815C1543.62 339.047 1548.47 334.894 1551.58 329.704C1555.04 324.167 1556.43 317.938 1556.43 310.671ZM1527.01 321.053C1523.9 323.475 1520.09 324.513 1514.55 324.513H1503.13V296.83H1514.55C1519.74 296.83 1523.9 297.868 1527.01 300.29C1530.13 302.712 1531.51 306.173 1531.51 310.671C1531.16 315.516 1529.78 318.63 1527.01 321.053Z" fill="#F4FEF5"/>
<path d="M1550.89 383.339H1580.3L1590.34 362.577H1624.94L1634.98 383.339H1664.74L1607.64 268.799L1550.89 383.339ZM1619.75 342.852H1595.87L1607.99 315.169L1619.75 342.852Z" fill="#F4FEF5"/>
<path d="M1725.64 275.375L1704.53 315.862L1683.42 275.375H1653.32L1691.04 339.739V383.687H1717.68V339.739L1755.4 275.721H1725.64V275.375Z" fill="#F4FEF5"/>
<path d="M457.046 386.107H370.919L467.812 223.812H184.71V428.741H232.118V346.312H306.172V306.517H232.559V266.03H306.864H386.454L293.022 428.324H457.046V386.107Z" fill="#001F3F"/>
<path d="M325.896 120C212.048 120 120 212.394 120 325.896C120 439.744 212.394 531.791 325.896 531.791C439.744 531.791 532.137 439.398 532.137 325.896C532.137 212.047 439.744 120 325.896 120ZM293.022 428.324L386.799 266.03H307.209H232.464V306.517H306.171V346.312H232.118V428.671H184.71V223.813H467.773L370.881 386.107H457.046V428.324H293.022Z" fill="#80ED99"/>
</svg>
